<svg width="168" height="168" fill="none" xmlns="http://www.w3.org/2000/svg"><path fill-rule="evenodd" clip-rule="evenodd" d="M132.914 23.217l-47.638-11.21C71.816 8.664 58.498 16.562 54.29 29.36H41.34c-14.8 0-26.25 11.45-26.25 26.25v74.9c0 14.8 11.45 26.25 26.25 26.25h49c7.538 0 15.275-3.282 20.145-9.084 11.302-.591 20.979-8.988 24.103-19.923l.031-.107 17.52-72.887c3.514-14.112-5.329-28.068-19.225-31.542zm-22.61 113.943c6.264-.521 12.149-5.307 14.16-12.192l17.483-72.731c2.067-8.269-3.071-16.688-11.547-18.825L82.767 22.204c-8.28-2.07-16.71 3.084-18.834 11.58l-.7 2.8-.818-.205-16.681 69.504c-2.067 8.27 3.071 16.688 11.547 18.826l49.016 11.533.911.911.19.005c.126.002.261.002.443.002h2.463zM25.59 55.61c0-9 6.75-15.75 15.75-15.75h9.441l-15.24 63.503c-3.513 14.111 5.33 28.067 19.226 31.541l42.27 9.946a16.82 16.82 0 01-6.696 1.41h-49c-9.001 0-15.75-6.749-15.75-15.75v-74.9z" fill="#232323"/></svg>