<svg width="200" height="200" fill="none" xmlns="http://www.w3.org/2000/svg"><path fill-rule="evenodd" clip-rule="evenodd" d="M141.65 174.15c-1.667 0-3.333 0-5-.833l-34.167-18.334c-2.5-.833-3.333 0-3.333 0l-35 18.334c-5 1.666-9.167.833-12.5-1.667s-5-6.667-4.167-10.833l6.667-38.334v-.833l-28.333-27.5c-3.334-3.333-4.167-8.333-2.5-12.5 1.666-4.167 5-7.5 10-8.334l39.166-5 17.5-35.833c1.667-3.333 5-6.667 9.167-6.667 5 0 9.167 1.667 11.667 5.834l17.5 36.666 39.166 5.834c4.167.833 7.5 3.333 9.167 7.5 1.667 4.167.833 8.333-1.667 11.667l-.833.833-28.333 28.333 6.666 38.334c.834 4.166-.833 8.333-4.166 10.833-1.667 1.667-4.167 2.5-6.667 2.5zm-42.5-31.667c2.5 0 4.167 0 6.667.834l1.666.833 33.334 17.5-6.667-38.333c0-1.667 0-7.5 4.167-10l26.666-26.667-40.833-5.834c-1.667-.833-5-2.5-6.667-5.833l-16.666-35-16.667 35c-2.5 1.667-5 5-10 5.833l-38.333 5 27.5 27.501c3.333 3.333 3.333 7.5 3.333 9.166v.834l-6.667 37.5 33.334-17.5c1.666-.834 4.166-.834 5.833-.834z" fill="#232323"/></svg>