<svg width="190" height="136" fill="none" xmlns="http://www.w3.org/2000/svg"><path fill-rule="evenodd" clip-rule="evenodd" d="M49.5 41.458c0-13.462 10.913-24.375 24.375-24.375S98.25 27.995 98.25 41.457 87.337 65.832 73.875 65.832 49.5 54.92 49.5 41.458zM73.875.833C51.438.833 33.25 19.02 33.25 41.458c0 11.618 4.877 22.097 12.695 29.5-22.994 9.11-40.584 29.543-45.068 54.655a8.125 8.125 0 1015.996 2.856c4.72-26.426 28.406-46.387 55.919-46.387 27.513 0 51.199 19.961 55.918 46.387a8.125 8.125 0 1015.997-2.856c-3.132-17.542-12.66-32.8-25.956-43.51 26.852.73 49.745 20.435 54.376 46.366a8.124 8.124 0 1015.996-2.856c-4.418-24.744-21.561-44.944-44.059-54.246 7.913-7.35 12.769-17.92 12.769-29.91 0-22.904-17.721-40.624-40.625-40.624-8.018 0-15.436 2.257-21.588 6.303A40.433 40.433 0 0073.875.833zm43.333 65c-3.493 0-6.682-.689-9.48-1.91a40.429 40.429 0 006.772-22.465 40.435 40.435 0 00-6.772-22.466c2.798-1.221 5.987-1.91 9.48-1.91 13.93 0 24.375 10.446 24.375 24.376 0 13.929-10.445 24.374-24.375 24.374z" fill="#232323"/></svg>