<svg width="168" height="168" viewBox="0 0 168 168" fill="none" xmlns="http://www.w3.org/2000/svg">
<path fill-rule="evenodd" clip-rule="evenodd" d="M132.914 23.2167L85.2761 12.0078C71.8151 8.66323 58.4982 16.5608 54.2891 29.3605H41.3403C26.5409 29.3605 15.0903 40.8109 15.0903 55.6105V130.51C15.0903 145.31 26.5409 156.76 41.3403 156.76H90.3406C97.8782 156.76 105.615 153.478 110.485 147.676C121.787 147.085 131.464 138.688 134.588 127.753L134.619 127.646L152.139 54.7591C155.653 40.6473 146.81 26.6908 132.914 23.2167ZM110.304 137.16C116.568 136.639 122.453 131.853 124.464 124.968L141.947 52.237C144.014 43.968 138.876 35.5493 130.4 33.4119L82.7666 22.2041C74.487 20.1341 66.0573 25.2881 63.9333 33.7835L63.2335 36.5834L62.415 36.3788L45.734 105.883C43.6667 114.153 48.805 122.571 57.281 124.709L106.297 136.242L107.208 137.153C107.26 137.155 107.323 137.157 107.398 137.158C107.524 137.16 107.659 137.16 107.841 137.16H110.304ZM25.5903 55.6105C25.5903 46.61 32.3399 39.8605 41.3403 39.8605H50.7812L35.5409 103.363C32.0278 117.474 40.8711 131.43 54.7672 134.904L97.0375 144.85C94.9872 145.746 92.6877 146.26 90.3406 146.26H41.3403C32.3399 146.26 25.5903 139.511 25.5903 130.51V55.6105Z" fill="#232323"/>
</svg>
