<svg width="200" height="200" viewBox="0 0 200 200" fill="none" xmlns="http://www.w3.org/2000/svg">
<path fill-rule="evenodd" clip-rule="evenodd" d="M141.65 174.15C139.983 174.15 138.317 174.15 136.65 173.317L102.483 154.983C99.9834 154.15 99.1501 154.983 99.1501 154.983L64.1501 173.317C59.1501 174.983 54.9834 174.15 51.6501 171.65C48.3167 169.15 46.6501 164.983 47.4834 160.817L54.1501 122.483V121.65L25.8167 94.1499C22.4834 90.8166 21.6501 85.8166 23.3167 81.6497C24.9834 77.4831 28.3167 74.1497 33.3167 73.3164L72.4834 68.3164L89.9834 32.4831C91.6501 29.1497 94.9834 25.8164 99.1501 25.8164C104.15 25.8164 108.317 27.4831 110.817 31.6497L128.317 68.3164L167.483 74.1497C171.65 74.9831 174.983 77.4831 176.65 81.6497C178.317 85.8166 177.483 89.9832 174.983 93.3166L174.15 94.1499L145.817 122.483L152.483 160.817C153.317 164.983 151.65 169.15 148.317 171.65C146.65 173.317 144.15 174.15 141.65 174.15ZM99.1501 142.483C101.65 142.483 103.317 142.483 105.817 143.317L107.483 144.15L140.817 161.65L134.15 123.317C134.15 121.65 134.15 115.817 138.317 113.317L164.983 86.6499L124.15 80.8164C122.483 79.9831 119.15 78.3164 117.483 74.9831L100.817 39.9831L84.1501 74.9831C81.6501 76.6497 79.1501 79.9831 74.1501 80.8164L35.8167 85.8166L63.3167 113.317C66.6501 116.65 66.6501 120.817 66.6501 122.483V123.317L59.9834 160.817L93.3167 143.317C94.9834 142.483 97.4834 142.483 99.1501 142.483Z" fill="#232323"/>
</svg>
