<svg width="190" height="136" viewBox="0 0 190 136" fill="none" xmlns="http://www.w3.org/2000/svg">
<path fill-rule="evenodd" clip-rule="evenodd" d="M49.5 41.4575C49.5 27.9956 60.413 17.0825 73.875 17.0825C87.3365 17.0825 98.25 27.9956 98.25 41.4575C98.25 54.9198 87.3365 65.8322 73.875 65.8322C60.413 65.8322 49.5 54.9198 49.5 41.4575V41.4575ZM73.875 0.83252C51.4385 0.83252 33.25 19.0209 33.25 41.4575C33.25 53.0759 38.127 63.555 45.9453 70.9585C22.9513 80.0683 5.36082 100.501 0.876578 125.613C0.0876952 130.031 3.02927 134.251 7.44667 135.04C11.8642 135.829 16.0846 132.887 16.8735 128.469C21.5925 102.043 45.2788 82.0822 72.7917 82.0822C100.305 82.0822 123.991 102.043 128.71 128.469C129.499 132.887 133.719 135.829 138.136 135.04C142.554 134.251 145.495 130.031 144.707 125.613C141.575 108.071 132.047 92.8137 118.751 82.1039C145.603 82.8329 168.496 102.538 173.127 128.469C173.915 132.887 178.136 135.829 182.553 135.04C186.971 134.251 189.912 130.031 189.123 125.613C184.705 100.869 167.562 80.6695 145.064 71.3669C152.977 64.0165 157.833 53.4475 157.833 41.4575C157.833 18.5535 140.112 0.83252 117.208 0.83252C109.19 0.83252 101.772 3.08965 95.6197 7.136C89.3331 3.14425 81.8733 0.83252 73.875 0.83252ZM117.208 65.8322C113.715 65.8322 110.526 65.1443 107.728 63.9223C112.007 57.4884 114.5 49.7642 114.5 41.4575C114.5 33.1511 112.007 25.4269 107.728 18.9923C110.526 17.771 113.715 17.0825 117.208 17.0825C131.138 17.0825 141.583 27.5281 141.583 41.4575C141.583 55.3867 131.138 65.8322 117.208 65.8322Z" fill="#232323"/>
</svg>
